<svg viewBox="0 0 36 36" xmlns="http://www.w3.org/2000/svg" width="36" height="36"><rect x="4" y="4" width="6" height="6"></rect><rect x="4" y="15" width="6" height="6"></rect><rect x="4" y="26" width="6" height="6"></rect><rect x="15" y="15" width="6" height="6"></rect><rect x="15" y="26" width="6" height="6"></rect><rect x="26" y="15" width="6" height="6"></rect><rect x="26" y="26" width="6" height="6"></rect><path d="M15,10h4L19,9.89,21,6.5V4H15Z"></path><path d="M26.85 1.14L21.13 11a1.28 1.28 0 001.1 2h11.45a1.28 1.28 0 001.1-2l-5.72-9.86a1.28 1.28 0 00-2.21 0z" class="alert"></path></svg>