<svg viewBox="0 0 36 36" xmlns="http://www.w3.org/2000/svg" width="36" height="36"><polygon points="8 8 4 8 4 10 10 10 10 4 8 4 8 8"></polygon><polygon points="8 19 4 19 4 21 10 21 10 15 8 15 8 19"></polygon><polygon points="19 19 15 19 15 21 21 21 21 15 19 15 19 19"></polygon><polygon points="30 15 30 19 26 19 26 21 32 21 32 15 30 15"></polygon><polygon points="8 30 4 30 4 32 10 32 10 26 8 26 8 30"></polygon><polygon points="19 30 15 30 15 32 21 32 21 26 19 26 19 30"></polygon><polygon points="30 30 26 30 26 32 32 32 32 26 30 26 30 30"></polygon><path d="M19,8H15v2h4L19,9.89,21,6.5V4H19Z"></path><path d="M26.85 1.14L21.13 11a1.28 1.28 0 001.1 2h11.45a1.28 1.28 0 001.1-2l-5.72-9.86a1.28 1.28 0 00-2.21 0z" class="alert"></path></svg>