<svg viewBox="0 0 36 36" xmlns="http://www.w3.org/2000/svg" width="36" height="36"><path d="M2,24v6a2,2,0,0,0,2,2H32a2,2,0,0,0,2-2V24Zm28,5H26V27h4Z"></path><path d="M13,9.92,17,6V18a1,1,0,1,0,2,0V6l1.47,1.46,1-1.79L18,2.16,11.61,8.5A1,1,0,0,0,13,9.92Z"></path><path d="M31.58,15.4H22.23A3.62,3.62,0,0,1,21,15.16V18a3,3,0,1,1-6,0V12H7.07a1.92,1.92,0,0,0-1.9,1.32C2.86,19.68,2.24,21.43,2.07,22H33.93C33.79,21.49,33.28,20.07,31.58,15.4Z"></path><path d="M26.85 1.14L21.13 11a1.28 1.28 0 001.1 2h11.45a1.28 1.28 0 001.1-2l-5.72-9.86a1.28 1.28 0 00-2.21 0z" class="alert"></path></svg>