<svg viewBox="0 0 36 36" xmlns="http://www.w3.org/2000/svg" width="36" height="36"><path d="M16.58,21.26,10.2,14.91A3,3,0,0,1,9.44,12H7.07a1.92,1.92,0,0,0-1.9,1.32C2.86,19.68,2.24,21.43,2.07,22H17.33Z"></path><path d="M2,24v6a2,2,0,0,0,2,2H32a2,2,0,0,0,2-2V24Zm28,4H26V26h4Z"></path><path d="M18.66,22H33.93c-.15-.51-.65-1.93-2.35-6.6H25.3l-5.89,5.86Z"></path><path d="M18,19.84l4.47-4.44h-.23a3.64,3.64,0,0,1-2-.61L19,16V4a1,1,0,1,0-2,0V16l-4-3.95a1,1,0,0,0-1.41,1.42Z"></path><path d="M26.85 1.14L21.13 11a1.28 1.28 0 001.1 2h11.45a1.28 1.28 0 001.1-2l-5.72-9.86a1.28 1.28 0 00-2.21 0z" class="alert"></path></svg>