<svg viewBox="0 0 36 36" xmlns="http://www.w3.org/2000/svg" width="36" height="36"><rect x="6" y="22" width="24" height="2"></rect><rect x="26" y="26" width="4" height="2"></rect><path d="M18,19.84l4.47-4.44h-.23a3.67,3.67,0,0,1-2-.61L19,16V4a1,1,0,1,0-2,0V16l-4-3.95a1,1,0,0,0-1.41,1.42Z"></path><path d="M31.58,15.4H29.46c1,2.85,2.31,6.37,2.54,7.08V30H4V22.48C4.28,21.65,7.05,14,7.05,14H9.58a3,3,0,0,1-.14-2H7.07a1.92,1.92,0,0,0-1.9,1.32C2,22,2,22.1,2,22.33V30a2,2,0,0,0,2,2H32a2,2,0,0,0,2-2V22.33C34,22.12,34,22,31.58,15.4Z"></path><path d="M26.85 1.14L21.13 11a1.28 1.28 0 001.1 2h11.45a1.28 1.28 0 001.1-2l-5.72-9.86a1.28 1.28 0 00-2.21 0z" class="alert"></path></svg>