<svg viewBox="0 0 36 36" xmlns="http://www.w3.org/2000/svg" width="36" height="36"><path d="M22.23,15.4A3.66,3.66,0,0,1,20.55,15l2.76,4.79L16.9,18.7l3.36,6.73a1.2,1.2,0,0,1-2.15,1.07L12.65,15.56l6,1-2.29-4a1.2,1.2,0,1,1,2.08-1.2l.09.15A3.66,3.66,0,0,1,19,9.89L22.45,4H22V2.62A.6.6,0,0,0,21.42,2H14.58a.6.6,0,0,0-.58.62V4H10A1.09,1.09,0,0,0,9,5.07v28A1,1,0,0,0,10,34H26a1,1,0,0,0,1-.94V15.4Z"></path><path d="M26.85 1.14L21.13 11a1.28 1.28 0 001.1 2h11.45a1.28 1.28 0 001.1-2l-5.72-9.86a1.28 1.28 0 00-2.21 0z" class="alert"></path></svg>