<svg viewBox="0 0 36 36" xmlns="http://www.w3.org/2000/svg" width="36" height="36"><path d="M18.59,11.77a1,1,0,0,0-1.73,1l2.5,4.34-6.07-1,5.29,10.59a1,1,0,0,0,1.79-.89l-3.53-7.08,6.38,1.06Z"></path><path d="M25,15.4V32H11V6h4V4h6V6h.28l1.64-2.85A1.57,1.57,0,0,0,21.42,2H14.58A1.58,1.58,0,0,0,13,3.58V4H10.88A1.88,1.88,0,0,0,9,5.88V32.12A1.88,1.88,0,0,0,10.88,34H25.12A1.88,1.88,0,0,0,27,32.12V15.4Z"></path><path d="M26.85 1.14L21.13 11a1.28 1.28 0 001.1 2h11.45a1.28 1.28 0 001.1-2l-5.72-9.86a1.28 1.28 0 00-2.21 0z" class="alert"></path></svg>