<svg viewBox="0 0 36 36" xmlns="http://www.w3.org/2000/svg" width="36" height="36"><rect x="8" y="8" width="2" height="2"></rect><rect x="12" y="8" width="2" height="2"></rect><rect x="16" y="8" width="2" height="2"></rect><rect x="8" y="13" width="2" height="2"></rect><rect x="12" y="13" width="2" height="2"></rect><rect x="16" y="13" width="2" height="2"></rect><rect x="8" y="18" width="2" height="2"></rect><rect x="12" y="18" width="2" height="2"></rect><rect x="16" y="18" width="2" height="2"></rect><rect x="8" y="23" width="2" height="2"></rect><rect x="12" y="23" width="2" height="2"></rect><rect x="16" y="23" width="2" height="2"></rect><rect x="23" y="18" width="2" height="2"></rect><rect x="27" y="18" width="2" height="2"></rect><rect x="23" y="23" width="2" height="2"></rect><rect x="27" y="23" width="2" height="2"></rect><path d="M20,31H17V28H9v3H6V5.12A.12.12,0,0,1,6.12,5H19.88a.12.12,0,0,1,.12.12V8.24l2-3.41A2.12,2.12,0,0,0,19.88,3H6.12A2.12,2.12,0,0,0,4,5.12V33H22V15.38a3.68,3.68,0,0,1-2-.74Z"></path><polygon points="31 15.4 31 31 23 31 23 33 33 33 33 15.4 31 15.4"></polygon><path d="M26.85 1.14L21.13 11a1.28 1.28 0 001.1 2h11.45a1.28 1.28 0 001.1-2l-5.72-9.86a1.28 1.28 0 00-2.21 0z" class="alert"></path></svg>