<svg viewBox="0 0 36 36" xmlns="http://www.w3.org/2000/svg" width="36" height="36"><path d="M5,10H8.5V8H4.64A1.65,1.65,0,0,0,3,9.67V32H8.5V30H5Z"></path><ellipse cx="18.01" cy="25.99" rx="1.8" ry="1.79"></ellipse><path d="M19,9.89l.39-.68H13.5v1.6h5.17A3.65,3.65,0,0,1,19,9.89Z"></path><path d="M24,30H12V6h9.29l1.15-2H11.68A1.68,1.68,0,0,0,10,5.68V32H26V15.4H24Z"></path><polygon points="31 15.4 31 30 27.5 30 27.5 32 33 32 33 15.4 31 15.4"></polygon><path d="M26.85 1.14L21.13 11a1.28 1.28 0 001.1 2h11.45a1.28 1.28 0 001.1-2l-5.72-9.86a1.28 1.28 0 00-2.21 0z" class="alert"></path></svg>