<svg viewBox="0 0 36 36" xmlns="http://www.w3.org/2000/svg" width="36" height="36"><path d="M13.71,12.59a1,1,0,0,0-1.39-.26L5.79,16.78a1,1,0,0,0,0,1.65l6.53,4.45a1,1,0,1,0,1.13-1.65L8.13,17.61,13.45,14A1,1,0,0,0,13.71,12.59Z"></path><path d="M18.56,11.62,15.41,24.29a.9.9,0,0,0,.66,1.09l.22,0a.9.9,0,0,0,.87-.68L19.73,14.4a3.59,3.59,0,0,1-1.16-2.79Z"></path><path d="M30.21,16.78l-2-1.38H24.64l3.24,2.21-5.32,3.63a1,1,0,0,0,1.13,1.65l6.53-4.45a1,1,0,0,0,0-1.65Z"></path><path d="M26.85 1.14L21.13 11a1.28 1.28 0 001.1 2h11.45a1.28 1.28 0 001.1-2l-5.72-9.86a1.28 1.28 0 00-2.21 0z" class="alert"></path></svg>