<svg viewBox="0 0 36 36" xmlns="http://www.w3.org/2000/svg" width="36" height="36"><path d="M32.2,23.55H30v-5.4h2.2a.8.8,0,1,0,0-1.6H30V15.4H28V27.9a.1.1,0,0,1-.1.1H8.1a.1.1,0,0,1-.1-.1V8.1A.1.1,0,0,1,8.1,8h12l1.15-2H19.35V3.8a.8.8,0,1,0-1.6,0V6h-5.4V3.8a.8.8,0,1,0-1.6,0V6H8.1A2.1,2.1,0,0,0,6,8.1V9.55H3.8a.8.8,0,1,0,0,1.6H6v5.4H3.8a.8.8,0,1,0,0,1.6H6v5.4H3.8a.8.8,0,1,0,0,1.6H6V27.9A2.1,2.1,0,0,0,8.1,30h2.65v2.2a.8.8,0,1,0,1.6,0V30h5.4v2.2a.8.8,0,1,0,1.6,0V30h5.4v2.2a.8.8,0,1,0,1.6,0V30H27.9A2.1,2.1,0,0,0,30,27.9V25.15h2.2a.8.8,0,1,0,0-1.6Z"></path><path d="M12.06,24.57H23.83a.75.75,0,0,0,.75-.75V15.4h-1.5v7.67h-11Z"></path><path d="M26.85 1.14L21.13 11a1.28 1.28 0 001.1 2h11.45a1.28 1.28 0 001.1-2l-5.72-9.86a1.28 1.28 0 00-2.21 0z" class="alert"></path></svg>