<svg viewBox="0 0 36 36" xmlns="http://www.w3.org/2000/svg" width="36" height="36"><path d="M26,32H24.26a3.61,3.61,0,0,1-1.5-2.52V28.13H21.24V29.5A4.2,4.2,0,0,0,22.17,32H13.83a4.2,4.2,0,0,0,.93-2.52V28.13H13.24V29.5A3.61,3.61,0,0,1,11.74,32H9.94a1,1,0,1,0,0,2H26.06a.92.92,0,0,0,1-1A1,1,0,0,0,26,32Z"></path><path d="M33.68,15.4H32V25H4V5H21.87L23,3H3.5A1.5,1.5,0,0,0,2,4.5v21A1.5,1.5,0,0,0,3.5,27h29A1.5,1.5,0,0,0,34,25.5V15.38Z"></path><polygon points="7.7 23 7.7 8.76 19.7 8.76 20.62 7.16 6.1 7.16 6.1 23 7.7 23"></polygon><path d="M26.85 1.14L21.13 11a1.28 1.28 0 001.1 2h11.45a1.28 1.28 0 001.1-2l-5.72-9.86a1.28 1.28 0 00-2.21 0z" class="alert"></path></svg>