<svg viewBox="0 0 36 36" xmlns="http://www.w3.org/2000/svg" width="36" height="36"><path d="M22.28,26.07a1,1,0,0,0-.71.29L19,28.94V16.68a1,1,0,1,0-2,0V28.94l-2.57-2.57A1,1,0,0,0,13,27.78l5,5,5-5a1,1,0,0,0-.71-1.71Z"></path><path d="M19.87,4.69a8.81,8.81,0,0,1,2,.25l1-1.8a10.8,10.8,0,0,0-3.07-.45,10.47,10.47,0,0,0-9.6,6.1A9.65,9.65,0,0,0,10.89,28a3,3,0,0,1,0-2A7.65,7.65,0,0,1,11,10.74l.67,0,.23-.63A8.43,8.43,0,0,1,19.87,4.69Z"></path><path d="M32.9,15.4H30.21A6,6,0,0,1,26.38,26H25.09a3,3,0,0,1,0,2h1.28A8,8,0,0,0,32.9,15.4Z"></path><path d="M26.85 1.14L21.13 11a1.28 1.28 0 001.1 2h11.45a1.28 1.28 0 001.1-2l-5.72-9.86a1.28 1.28 0 00-2.21 0z" class="alert"></path></svg>