<svg viewBox="0 0 36 36" xmlns="http://www.w3.org/2000/svg" width="36" height="36"><rect x="6" y="20" width="24" height="2"></rect><rect x="26" y="24" width="4" height="2"></rect><path d="M34,21.08l-1.4-5.68H30.51l1.49,6V29H4V21.44L7.06,9h12.5l1.15-2H7.06A2,2,0,0,0,5.13,8.47L2,21.08a1,1,0,0,0,0,.24V29a2,2,0,0,0,2,2H32a2,2,0,0,0,2-2V21.31A1,1,0,0,0,34,21.08Z"></path><path d="M26.85 1.14L21.13 11a1.28 1.28 0 001.1 2h11.45a1.28 1.28 0 001.1-2l-5.72-9.86a1.28 1.28 0 00-2.21 0z" class="alert"></path></svg>