<svg viewBox="0 0 36 36" xmlns="http://www.w3.org/2000/svg" width="36" height="36"><path d="M18,28.78a3,3,0,1,0-3-3A3,3,0,0,0,18,28.78Zm0-4.5a1.5,1.5,0,1,1-1.5,1.5A1.5,1.5,0,0,1,18,24.28Z"></path><path d="M18.89,10.2H12v1.6h6.56A3.7,3.7,0,0,1,18.89,10.2Z"></path><polygon points="12 6.2 12 7.8 20.25 7.8 21.18 6.2 12 6.2"></polygon><path d="M26,32H10V4H22.45L23.6,2H9.5A1.5,1.5,0,0,0,8,3.5V34H28V15.4H26Z"></path><path d="M34.78,11.05,29.06,1.14a1.28,1.28,0,0,0-2.21,0l-5.72,9.91A1.27,1.27,0,0,0,22.23,13H33.68A1.27,1.27,0,0,0,34.78,11.05Z"></path><path d="M26.85 1.14L21.13 11a1.28 1.28 0 001.1 2h11.45a1.28 1.28 0 001.1-2l-5.72-9.86a1.28 1.28 0 00-2.21 0z" class="alert"></path></svg>