<svg viewBox="0 0 36 36" xmlns="http://www.w3.org/2000/svg" width="36" height="36"><path d="M18,20.25a1,1,0,0,1-.43-.1l-15-7.09a1,1,0,0,1,0-1.81l15-7.09a1,1,0,0,1,.85,0l15,7.09a1,1,0,0,1,0,1.81l-15,7.09A1,1,0,0,1,18,20.25ZM5.34,12.16l12.66,6,12.66-6L18,6.18Z"></path><path d="M18,26.16a1,1,0,0,1-.43-.1L2.57,19a1,1,0,1,1,.85-1.81L18,24.06l14.57-6.89A1,1,0,1,1,33.43,19l-15,7.09A1,1,0,0,1,18,26.16Z"></path><path d="M18,32.07a1,1,0,0,1-.43-.1l-15-7.09a1,1,0,0,1,.85-1.81L18,30l14.57-6.89a1,1,0,1,1,.85,1.81L18.43,32A1,1,0,0,1,18,32.07Z"></path></svg>