<svg viewBox="0 0 36 36" xmlns="http://www.w3.org/2000/svg" width="36" height="36"><rect x="20" y="18" width="2" height="2"></rect><rect x="24" y="18" width="2" height="2"></rect><rect x="20" y="22" width="2" height="2"></rect><rect x="24" y="22" width="2" height="2"></rect><rect x="8.81" y="10" width="8.14" height="2"></rect><rect x="8.81" y="14" width="8.14" height="2"></rect><rect x="8.81" y="18" width="8.14" height="2"></rect><rect x="8.81" y="22" width="8.14" height="2"></rect><rect x="8.81" y="26" width="8.14" height="2"></rect><path d="M30,15.4V30H6V6H21.27l1.18-2H6A2,2,0,0,0,4,6V30a2,2,0,0,0,2,2H7.88v1.57a1,1,0,0,0,2,0V32h16v1.57a1,1,0,0,0,2,0V32H30a2,2,0,0,0,2-2V15.4Z"></path><path d="M26.85 1.14L21.13 11a1.28 1.28 0 001.1 2h11.45a1.28 1.28 0 001.1-2l-5.72-9.86a1.28 1.28 0 00-2.21 0z" class="alert"></path></svg>