<svg viewBox="0 0 36 36" xmlns="http://www.w3.org/2000/svg" width="36" height="36"><rect x="8" y="12" width="4" height="8"></rect><path d="M15,27H4V17H2V27a2,2,0,0,0,2,2H16.61V25.55h2.26V24H15Z"></path><path d="M32,17V27H19v2H32a2,2,0,0,0,2-2V17Z"></path><path d="M19,13.56A3.66,3.66,0,0,1,18.57,12H16v8h4V14.64A3.67,3.67,0,0,1,19,13.56Z"></path><rect x="24" y="15.4" width="4" height="4.6"></rect><path d="M4,9H19.56l1.15-2H4A2,2,0,0,0,2,9v4H4Z"></path><path d="M26.85 1.14L21.13 11a1.28 1.28 0 001.1 2h11.45a1.28 1.28 0 001.1-2l-5.72-9.86a1.28 1.28 0 00-2.21 0z" class="alert"></path></svg>