<svg viewBox="0 0 36 36" xmlns="http://www.w3.org/2000/svg" width="36" height="36"><path d="M9.68,29.9,4,26.62V9.38L9.68,6.1a1,1,0,1,0-.93-1.77l-.07,0L2,8.23V27.77l6.68,3.86a1,1,0,0,0,1.37-.36h0A1,1,0,0,0,9.68,29.9Z"></path><path d="M26,15.4H24V17H19V13.46A3.69,3.69,0,0,1,19,10H12a2,2,0,0,0-2,2V24a2,2,0,0,0,2,2H24a2,2,0,0,0,2-2ZM17,24H12V19h5Zm0-7H12V12h5Zm7,7H19V19h5Z"></path><path d="M32,15.4V26.62l-6,3.47a1,1,0,1,0,1,1.73h0l7-4.05V15.38l-.32,0Z"></path><path d="M26.85 1.14L21.13 11a1.28 1.28 0 001.1 2h11.45a1.28 1.28 0 001.1-2l-5.72-9.86a1.28 1.28 0 00-2.21 0z" class="alert"></path></svg>