<svg viewBox="0 0 36 36" xmlns="http://www.w3.org/2000/svg" width="36" height="36"><path d="M33,15.4H22.23A3.68,3.68,0,0,1,19,9.89L20.71,7H7.13A2,2,0,0,0,5.22,8.41L2.09,18.48a2,2,0,0,0-.09.59V27a2,2,0,0,0,2,2H32a2,2,0,0,0,2-2V19.06a2,2,0,0,0-.09-.59ZM8.92,25H7.12V22h1.8Zm5,0h-1.8V22h1.8Zm5,0h-1.8V22h1.8Zm5,0H22.1V22h1.8Zm5,0H27.1V22h1.8ZM31,19.4H5V18H31Z"></path><path d="M26.85 1.14L21.13 11a1.28 1.28 0 001.1 2h11.45a1.28 1.28 0 001.1-2l-5.72-9.86a1.28 1.28 0 00-2.21 0z" class="alert"></path></svg>