<svg viewBox="0 0 36 36" xmlns="http://www.w3.org/2000/svg" width="36" height="36"><path d="M14.56,19.56H13.22v4.88h1.34a2.44,2.44,0,0,0,0-4.88Z"></path><path d="M7.33,19.57H5.67v2.26H7.33c.83,0,1.39-.44,1.39-1.13S8.16,19.57,7.33,19.57Z"></path><path d="M21.89,2H7.83A1.88,1.88,0,0,0,6,3.91V14H8V4H20v8h8v4H3a1,1,0,0,0-1,1V27a1,1,0,0,0,1,1H28v4H8V30H6v2.09A1.88,1.88,0,0,0,7.83,34H28.17A1.88,1.88,0,0,0,30,32.09V9.92ZM7.51,23.4H5.67V26H4V18H7.51A2.71,2.71,0,0,1,8,23.4,3.68,3.68,0,0,1,7.51,23.4ZM14.34,26H11.55V18h2.79c2.62,0,4.48,1.65,4.48,4S17,26,14.34,26Zm11.77-6.45H21.78v1.73H25.7v1.55H21.78V26H20.1V18h6ZM22,10V4.1L28,10Z"></path></svg>