<svg viewBox="0 0 36 36" xmlns="http://www.w3.org/2000/svg" width="36" height="36"><rect x="10" y="17" width="14" height="2"></rect><rect x="6" y="25" width="2" height="2"></rect><rect x="10" y="25" width="14" height="2"></rect><path d="M18.64,11A3.65,3.65,0,0,1,19,9.89L19.56,9H10v2Z"></path><path d="M33.68,15.4H32V21H4V15H20.58A3.67,3.67,0,0,1,19,13.56a3.63,3.63,0,0,1-.26-.56H4V7H20.71l1.15-2H4A2,2,0,0,0,2,7V29a2,2,0,0,0,2,2H32a2,2,0,0,0,2-2V15.38ZM4,29V23H32v6Z"></path><path d="M26.85 1.14L21.13 11a1.28 1.28 0 001.1 2h11.45a1.28 1.28 0 001.1-2l-5.72-9.86a1.28 1.28 0 00-2.21 0z" class="alert"></path></svg>