<svg viewBox="0 0 36 36" xmlns="http://www.w3.org/2000/svg" width="36" height="36"><rect x="6" y="9" width="2" height="2"></rect><rect x="10" y="9" width="14" height="2"></rect><rect x="6" y="17" width="2" height="2"></rect><rect x="10" y="17" width="14" height="2"></rect><path d="M32,5H4A2,2,0,0,0,2,7V29a2,2,0,0,0,2,2H32a2,2,0,0,0,2-2V7A2,2,0,0,0,32,5ZM4,7H32v6H4Zm0,8H32v6H4ZM4,29V23H32v6Z"></path><rect x="6" y="25" width="2" height="2"></rect><rect x="10" y="25" width="14" height="2"></rect></svg>