<svg viewBox="0 0 36 36" xmlns="http://www.w3.org/2000/svg" width="36" height="36"><path d="M2,30a2,2,0,0,0,2,2H32a2,2,0,0,0,2-2V24H2Zm8-3H24v2H10ZM6,27H8v2H6Z"></path><path d="M19,9.89,19.56,9H10V7H20.71l1.73-3H4A2,2,0,0,0,2,6v6H18.57A3.67,3.67,0,0,1,19,9.89ZM8,9H6V7H8Z"></path><path d="M33.68,15.4H22.23A3.69,3.69,0,0,1,19.35,14H2v8H34V15.38ZM8,19H6V17H8Zm16,0H10V17H24Z"></path><path d="M26.85 1.14L21.13 11a1.28 1.28 0 001.1 2h11.45a1.28 1.28 0 001.1-2l-5.72-9.86a1.28 1.28 0 00-2.21 0z" class="alert"></path></svg>