<svg viewBox="0 0 36 36" xmlns="http://www.w3.org/2000/svg" width="36" height="36"><path d="M30,15.4v.53c0,11-10,15.61-12,16.43-2-.82-12-5.44-12-16.43V9.14a47.54,47.54,0,0,0,6.18-2.25,48.23,48.23,0,0,0,5.82-3c1,.64,2.2,1.27,3.43,1.89l1-1.74a41.1,41.1,0,0,1-3.89-2.18L18,1.5l-.54.35a45,45,0,0,1-6.08,3.21A43.79,43.79,0,0,1,4.75,7.4L4,7.59v8.34c0,13.39,13.53,18.4,13.66,18.45l.34.12.34-.12c.14,0,13.66-5.05,13.66-18.45V15.4Z"></path><path d="M26.85 1.14L21.13 11a1.28 1.28 0 001.1 2h11.45a1.28 1.28 0 001.1-2l-5.72-9.86a1.28 1.28 0 00-2.21 0z" class="alert"></path></svg>