<svg viewBox="0 0 36 36" xmlns="http://www.w3.org/2000/svg" width="36" height="36"><path class="clr-i-solid--alerted clr-i-solid-path-1--alerted" d="M17.91,20.28A39.4,39.4,0,0,1,6.25,18.77v-2a39.4,39.4,0,0,0,11.66,1.51c6.9,0,12.7-1.27,14.51-3H22.23a3.67,3.67,0,0,1-3.55-2.75h-.77A39.4,39.4,0,0,1,6.25,11V9a39.4,39.4,0,0,0,11.66,1.51h.82A3.64,3.64,0,0,1,19,9.75l4.17-7.22c-1.85-.18-3.68-.25-5.21-.25-5.57,0-15,.93-15,4.43V29.29c0,3.49,9.43,4.43,15,4.43s15-.93,15-4.43V24.09C32.57,26.28,26,28,17.91,28A39.4,39.4,0,0,1,6.25,26.52v-2A39.4,39.4,0,0,0,17.91,26C26,26,32.57,24.28,33,22.09V16.34C32.57,18.53,26,20.28,17.91,20.28Z"></path><path d="M26.85 1.14L21.13 11a1.28 1.28 0 001.1 2h11.45a1.28 1.28 0 001.1-2l-5.72-9.86a1.28 1.28 0 00-2.21 0z" class="alert"></path></svg>