<svg viewBox="0 0 36 36" xmlns="http://www.w3.org/2000/svg" width="36" height="36"><path d="M7.2,18a5,5,0,1,0,5-5A5,5,0,0,0,7.2,18Zm7,0a2,2,0,1,1-2-2A2,2,0,0,1,14.22,18Z"></path><path d="M18.78,18a5,5,0,1,0,9.27-2.6H22.23a3.71,3.71,0,0,1-2.17-.71A5,5,0,0,0,18.78,18Zm5-2a2,2,0,1,1-2,2A2,2,0,0,1,23.79,16Z"></path><path d="M33.68,15.4H30V24H6V12H18.57a3.65,3.65,0,0,1,.48-2.11L21.29,6H4A2,2,0,0,0,2,8V28a2,2,0,0,0,2,2H32a2,2,0,0,0,2-2V15.38Z"></path><path d="M26.85 1.14L21.13 11a1.28 1.28 0 001.1 2h11.45a1.28 1.28 0 001.1-2l-5.72-9.86a1.28 1.28 0 00-2.21 0z" class="alert"></path></svg>