<svg viewBox="0 0 36 36" xmlns="http://www.w3.org/2000/svg" width="36" height="36"><rect x="17" y="23" width="6" height="2"></rect><polygon points="7 24.11 16.6 19.7 16.6 17.89 7 13.48 7 15.68 13.79 18.8 7 21.91 7 24.11"></polygon><path d="M33.68,15.4H32V29H4V10.8H18.68A3.66,3.66,0,0,1,19,9.89l.4-.69H4V7H20.71l1.15-2H4A2,2,0,0,0,2,7V29a2,2,0,0,0,2,2H32a2,2,0,0,0,2-2V15.38Z"></path><path d="M26.85 1.14L21.13 11a1.28 1.28 0 001.1 2h11.45a1.28 1.28 0 001.1-2l-5.72-9.86a1.28 1.28 0 00-2.21 0z" class="alert"></path></svg>