<svg viewBox="0 0 36 36" xmlns="http://www.w3.org/2000/svg" width="36" height="36"><path d="M13,30H5a1,1,0,0,1-1-1V4A2,2,0,0,1,6,2h6a2,2,0,0,1,2,2V29A1,1,0,0,1,13,30ZM6,28h6V4H6Z"></path><circle cx="9" cy="7.42" r="1.5"></circle><path d="M15,34H3a1,1,0,0,1,0-2H15a1,1,0,0,1,0,2Z"></path><rect x="7.55" y="12.2" width="3" height="1.6"></rect><rect x="7.55" y="15.2" width="3" height="1.6"></rect><rect x="7.55" y="18.2" width="3" height="1.6"></rect><rect x="16" y="8" width="2" height="1.6"></rect><rect x="20" y="8" width="2" height="1.6"></rect><path d="M33,11.8H25a.8.8,0,0,1-.8-.8V5a.8.8,0,0,1,.8-.8h8a.8.8,0,0,1,.8.8v6A.8.8,0,0,1,33,11.8Zm-7.2-1.6h6.4V5.8H25.8Z"></path><rect x="16" y="20" width="2" height="1.6"></rect><rect x="20" y="20" width="2" height="1.6"></rect><path d="M33,23.8H25a.8.8,0,0,1-.8-.8V17a.8.8,0,0,1,.8-.8h8a.8.8,0,0,1,.8.8v6A.8.8,0,0,1,33,23.8Zm-7.2-1.6h6.4V17.8H25.8Z"></path></svg>