<svg viewBox="0 0 36 36" xmlns="http://www.w3.org/2000/svg" width="36" height="36"><path d="M11.29,26.72a1,1,0,0,0,1.41,0L18,21.49l5.3,5.23A1,1,0,0,0,24.7,25.3l-5.28-5.21,4.75-4.69H22.23a3.65,3.65,0,0,1-.81-.1L18,18.68l-5.3-5.23a1,1,0,0,0-1.41,1.42l5.28,5.21L11.3,25.3A1,1,0,0,0,11.29,26.72Z"></path><path d="M31,15.4V30H5V10H9.38a1,1,0,0,0,0-2H5.08A2,2,0,0,0,3,10V30a2,2,0,0,0,2.08,2H30.92A2,2,0,0,0,33,30V15.4Z"></path><path d="M26.85 1.14L21.13 11a1.28 1.28 0 001.1 2h11.45a1.28 1.28 0 001.1-2l-5.72-9.86a1.28 1.28 0 00-2.21 0z" class="alert"></path></svg>