<svg viewBox="0 0 36 36" xmlns="http://www.w3.org/2000/svg" width="36" height="36"><path d="M11,5H21.87L23,3H11A2,2,0,0,0,9,5v6.85h2Z"></path><rect x="25.01" y="15.4" width="1.99" height="2.6"></rect><path d="M30,15.4V26H22V17a2,2,0,0,0-2-2H6a2,2,0,0,0-2,2V31a2,2,0,0,0,2,2H20a2,2,0,0,0,2-2V28h8a2,2,0,0,0,2-2V15.4ZM6,31V17H20v9H16V20H14v6a2,2,0,0,0,2,2h4v3Z"></path><path d="M17,10v2h1.57A3.67,3.67,0,0,1,19,10Z"></path><path d="M26.85 1.14L21.13 11a1.28 1.28 0 001.1 2h11.45a1.28 1.28 0 001.1-2l-5.72-9.86a1.28 1.28 0 00-2.21 0z" class="alert"></path></svg>