<svg viewBox="0 0 36 36" xmlns="http://www.w3.org/2000/svg" width="36" height="36"><path d="M13.59,12a3.6,3.6,0,0,1,3.6-3.6h2.72L23,3H11A2,2,0,0,0,9,5v8.4h4.59Z"></path><path d="M17.19,10a2,2,0,0,0-2,2v1.4H19A3.68,3.68,0,0,1,19,10Z"></path><path d="M23.21,15.4A3.55,3.55,0,0,1,23.6,17v8H22V17a2,2,0,0,0-2-2H6a2,2,0,0,0-2,2V31a2,2,0,0,0,2,2H20a2,2,0,0,0,2-2V29.6H17.19a3.6,3.6,0,0,1-3.6-3.6V20h1.6v6a2,2,0,0,0,2,2H30a2,2,0,0,0,2-2V15.4Z"></path><path d="M26.85 1.14L21.13 11a1.28 1.28 0 001.1 2h11.45a1.28 1.28 0 001.1-2l-5.72-9.86a1.28 1.28 0 00-2.21 0z" class="alert"></path></svg>