<svg viewBox="0 0 36 36" xmlns="http://www.w3.org/2000/svg" width="36" height="36"><polygon points="28 22 30 22 30 30 22 30 22 28 20 28 20 32 32 32 32 20 28 20 28 22"></polygon><polygon points="14 30 6 30 6 22 8 22 8 20 4 20 4 32 16 32 16 28 14 28 14 30"></polygon><polygon points="8 14 6 14 6 6 14 6 14 8 16 8 16 4 4 4 4 16 8 16 8 14"></polygon><rect x="11" y="11" width="6" height="6"></rect><rect x="11" y="19" width="6" height="6"></rect><rect x="19" y="19" width="6" height="6"></rect><path d="M25,15.4H22.23A3.69,3.69,0,0,1,19,13.56l0-.1V17h6Z"></path><polygon points="22.45 4 20 4 20 8 20.14 8 22.45 4"></polygon><rect x="28" y="15.4" width="4" height="0.6"></rect><path d="M26.85 1.14L21.13 11a1.28 1.28 0 001.1 2h11.45a1.28 1.28 0 001.1-2l-5.72-9.86a1.28 1.28 0 00-2.21 0z" class="alert"></path></svg>