<svg viewBox="0 0 36 36" xmlns="http://www.w3.org/2000/svg" width="36" height="36"><path d="M21.89,2H7.83A1.88,1.88,0,0,0,6,3.91V14H8V4H20v8h8v4H3a1,1,0,0,0-1,1V27a1,1,0,0,0,1,1H28v4H8V30H6v2.09A1.88,1.88,0,0,0,7.83,34H28.17A1.88,1.88,0,0,0,30,32.09V9.92ZM12,25.87H10L8.2,23.33,6.41,25.87H4.53L7.29,22,4.53,18.13H6.44l1.81,2.54,1.81-2.54H12L9.19,22Zm6.24,0H12.81V18.13h1.63v6.24h3.75Zm3.88.13a4.83,4.83,0,0,1-3.35-1.28l.94-1.14a3.64,3.64,0,0,0,2.48,1c.81,0,1.23-.38,1.23-.86s-.44-.72-1.6-1c-1.59-.37-2.72-.84-2.72-2.33A2.5,2.5,0,0,1,21.7,18h.14a4.27,4.27,0,0,1,2.95,1.07L24,20.26a3.49,3.49,0,0,0-2.15-.85c-.69,0-1.11.37-1.11.83s.45.74,1.61,1c1.62.37,2.7.87,2.7,2.3S23.91,26,22.07,26ZM22,10V4.1L28,10Z"></path></svg>