<svg viewBox="0 0 36 36" xmlns="http://www.w3.org/2000/svg" width="36" height="36"><path d="M21.89,2H7.83A1.88,1.88,0,0,0,6,3.91V15H8V4H20v8h8V32H8V27H6v5.09A1.88,1.88,0,0,0,7.83,34H28.17A1.88,1.88,0,0,0,30,32.09V9.92ZM22,10V4.1L28,10Z"></path><polygon points="9.78 25.35 6.95 21.38 9.78 17.45 7.85 17.45 6 20.04 4.14 17.45 2.19 17.45 5.01 21.42 2.19 25.35 4.11 25.35 5.97 22.76 7.81 25.35 9.78 25.35"></polygon><polygon points="10.66 17.45 10.66 25.35 16.15 25.35 16.15 23.82 12.32 23.82 12.32 17.45 10.66 17.45"></polygon><path d="M20.19,24.05a3.74,3.74,0,0,1-2.54-1l-.95,1.16a4.92,4.92,0,0,0,3.42,1.31c1.88,0,3-1,3-2.51s-1.1-2-2.75-2.35c-1.19-.27-1.65-.46-1.65-1s.42-.85,1.13-.85a3.57,3.57,0,0,1,2.2.87l.86-1.22a4.36,4.36,0,0,0-3-1.09A2.54,2.54,0,0,0,17,19.51a2.28,2.28,0,0,0,0,.26c0,1.53,1.15,2,2.78,2.38,1.17.28,1.62.45,1.62,1S21,24.05,20.19,24.05Z"></path></svg>