<svg viewBox="0 0 36 36" xmlns="http://www.w3.org/2000/svg" width="36" height="36"><path d="M32.85,27H32v-.85A1.15,1.15,0,0,0,30.85,25H28V17.63H24V25H20V17.63H16V25H12V17.63H8V25H5.15A1.15,1.15,0,0,0,4,26.15V27H3.15A1.15,1.15,0,0,0,2,28.15V31H34V28.15A1.15,1.15,0,0,0,32.85,27Z"></path><path d="M22.5,15a3.51,3.51,0,0,1-3-5.26l.14-.24-1.35-.78L14.35,11H11.14l6.72-3.86a.8.8,0,0,1,.8,0l1.75,1,1.65-2.86L18,2.92,2.5,11.83a1,1,0,1,0,1,1.73L5,12.68V16H31V15Z"></path><path d="M26.85 1.14L21.13 11a1.28 1.28 0 001.1 2h11.45a1.28 1.28 0 001.1-2l-5.72-9.86a1.28 1.28 0 00-2.21 0z" class="alert"></path></svg>