<svg viewBox="0 0 36 36" xmlns="http://www.w3.org/2000/svg" width="36" height="36"><circle cx="13.5" cy="29.5" r="2.5"></circle><circle cx="26.5" cy="29.5" r="2.5"></circle><path d="M22.23,15.4A3.68,3.68,0,0,1,19,9.89L21.29,6H9.21L8.76,4.57a1,1,0,0,0-.66-.65L4,2.66a1,1,0,1,0-.59,1.92L7,5.68l4.58,14.47L9.95,21.49l-.13.13A2.66,2.66,0,0,0,9.74,25,2.75,2.75,0,0,0,12,26H28.69a1,1,0,0,0,0-2H11.84a.67.67,0,0,1-.56-1l2.41-2H29.12a1,1,0,0,0,1-.76l1.19-4.84Z"></path><path d="M26.85 1.14L21.13 11a1.28 1.28 0 001.1 2h11.45a1.28 1.28 0 001.1-2l-5.72-9.86a1.28 1.28 0 00-2.21 0z" class="alert"></path></svg>