<svg viewBox="0 0 36 36" xmlns="http://www.w3.org/2000/svg" width="36" height="36"><circle cx="13.33" cy="29.75" r="2.25"></circle><circle cx="27" cy="29.75" r="2.25"></circle><polygon points="20.71 7 21.87 5 11.49 5 12.14 7 20.71 7"></polygon><path d="M29.15,15.4,28.33,19h-15L8.76,4.53a1,1,0,0,0-.66-.65L4,2.62a1,1,0,1,0-.59,1.92L7,5.64l4.59,14.5L9.95,21.48l-.13.13A2.66,2.66,0,0,0,9.74,25,2.75,2.75,0,0,0,12,26H28.69a1,1,0,0,0,0-2H11.84a.67.67,0,0,1-.56-1l2.41-2H29.13a1,1,0,0,0,1-.78l1.09-4.82Z"></path><path d="M26.85 1.14L21.13 11a1.28 1.28 0 001.1 2h11.45a1.28 1.28 0 001.1-2l-5.72-9.86a1.28 1.28 0 00-2.21 0z" class="alert"></path></svg>