<svg viewBox="0 0 36 36" xmlns="http://www.w3.org/2000/svg" width="36" height="36"><path d="M33.68,15.4h-6A9.7,9.7,0,0,1,28,17.89a10,10,0,1,1-15.83-8,1.4,1.4,0,0,1,1.94.31,1.37,1.37,0,0,1-.31,1.92,7.18,7.18,0,1,0,11.43,5.8,7.08,7.08,0,0,0-.45-2.49H22.23A3.69,3.69,0,0,1,19.35,14v4.4a1.29,1.29,0,0,1-2.58,0V8.65a1.29,1.29,0,0,1,2.58,0v.71l3.76-6.51A16,16,0,1,0,34,18a16,16,0,0,0-.23-2.61Z"></path><path d="M26.85 1.14L21.13 11a1.28 1.28 0 001.1 2h11.45a1.28 1.28 0 001.1-2l-5.72-9.86a1.28 1.28 0 00-2.21 0z" class="alert"></path></svg>