<svg viewBox="0 0 36 36" xmlns="http://www.w3.org/2000/svg" width="36" height="36"><path d="M11.42,3.43a5.77,5.77,0,0,0-7.64.41,5.72,5.72,0,0,0-.38,7.64A16.08,16.08,0,0,1,11.42,3.43Z"></path><path d="M28,27.78A13.88,13.88,0,0,0,31.77,15.4H22.23A3.69,3.69,0,0,1,19,13.56L19,13.4v3.78L25,20.1a1,1,0,1,1-.87,1.8L17,18.44V9.69a1,1,0,0,1,2,0V10L19,9.89l3-5.28a14,14,0,0,0-14,23.27L5.56,30.43A1,1,0,1,0,7,31.84l2.66-2.66a13.9,13.9,0,0,0,16.88-.08l2.74,2.74a1,1,0,0,0,1.41-1.41Z"></path><path d="M26.85 1.14L21.13 11a1.28 1.28 0 001.1 2h11.45a1.28 1.28 0 001.1-2l-5.72-9.86a1.28 1.28 0 00-2.21 0z" class="alert"></path></svg>