<svg viewBox="0 0 36 36" xmlns="http://www.w3.org/2000/svg" width="36" height="36"><path d="M28.05,16H19V12.28a1,1,0,0,0-2,0V16H8A4,4,0,0,0,4,20V32a2,2,0,0,0,2,2H30a2,2,0,0,0,2-2V20A4,4,0,0,0,28.05,16ZM6,32V25.91a2.7,2.7,0,0,0,.77.11,3.63,3.63,0,0,0,3-1.93c.59-.81,1-1.27,1.68-1.27s1.09.46,1.68,1.27a3.63,3.63,0,0,0,3,1.93,3.63,3.63,0,0,0,3-1.93c.59-.81,1-1.27,1.68-1.27s1.09.46,1.68,1.27a3.61,3.61,0,0,0,3,1.93,3.6,3.6,0,0,0,3-1.92.8.8,0,0,0-1.3-.94c-.58.81-.95,1.26-1.67,1.26s-1.1-.46-1.69-1.27a3.59,3.59,0,0,0-3-1.93,3.63,3.63,0,0,0-3,1.93c-.59.81-1,1.27-1.68,1.27S15,24,14.41,23.15a3.63,3.63,0,0,0-3-1.93,3.59,3.59,0,0,0-3,1.93c-.6.81-1,1.27-1.69,1.27A1.27,1.27,0,0,1,6,24.17V20A2,2,0,0,1,8,18h20.1A2,2,0,0,1,30,20V32Z"></path><path d="M17.64,10.46l.38.2.38-.22c.12-.06,2.72-1.58,2.39-4s-3.06-4-3.18-4a.8.8,0,0,0-.77,1.4S19,5,19.21,6.64A2.61,2.61,0,0,1,18,8.79a2.52,2.52,0,0,1-1-1.34,2.56,2.56,0,0,1,.18-1.58,6.61,6.61,0,0,0-1.21-1.14,4.31,4.31,0,0,0-.54,3.05A4.47,4.47,0,0,0,17.64,10.46Z"></path></svg>