<svg viewBox="0 0 36 36" xmlns="http://www.w3.org/2000/svg" width="36" height="36"><path d="M29,16H19V12.28a1,1,0,0,0-2,0V16H7a3,3,0,0,0-3,3V32a2,2,0,0,0,2,2H30a2,2,0,0,0,2-2V19A3,3,0,0,0,29,16Zm-1.93,8.89c-2.4,0-2.4-3.2-4.8-3.2s-2.39,3.2-4.79,3.2-2.4-3.2-4.79-3.2-2.39,3.2-4.79,3.2a2.37,2.37,0,0,1-1.9-1V19a1,1,0,0,1,1-1H29a1,1,0,0,1,1,1v3.63C29.16,23.57,28.61,24.89,27.07,24.89Z"></path><path d="M17.62,10.46l.39.2.38-.21c.11-.07,2.71-1.59,2.39-4s-3.07-4-3.18-4a.8.8,0,0,0-.77,1.41S19,5,19.19,6.64A2.56,2.56,0,0,1,18,8.79a2.54,2.54,0,0,1-1-1.33,2.63,2.63,0,0,1,.18-1.58,6.67,6.67,0,0,0-1.2-1.15,4.24,4.24,0,0,0-.54,3.06A4.46,4.46,0,0,0,17.62,10.46Z"></path></svg>