<svg viewBox="0 0 36 36" xmlns="http://www.w3.org/2000/svg" width="36" height="36"><path d="M18.92,10.75a1,1,0,0,0-2,0v8.72l5.9,4a1,1,0,1,0,1.11-1.66l-5-3.39Z"></path><path d="M33.77,15.39h-2A14,14,0,1,1,22.09,4.61l1-1.76A16,16,0,1,0,34,18,16,16,0,0,0,33.77,15.39Z"></path><path d="M18,8a9.81,9.81,0,0,1,2,.23l.85-1.46a11.55,11.55,0,1,0-5.13,22.52L16,27.7A10,10,0,0,1,18,8Z"></path><path d="M26.85 1.14L21.13 11a1.28 1.28 0 001.1 2h11.45a1.28 1.28 0 001.1-2l-5.72-9.86a1.28 1.28 0 00-2.21 0z" class="alert"></path></svg>