<svg viewBox="0 0 36 36" xmlns="http://www.w3.org/2000/svg" width="36" height="36"><path d="M33.77,15.39H22.23A3.69,3.69,0,0,1,19,13.56c0-.09-.09-.18-.13-.27V18.4l5,3.39a1,1,0,0,1-1.11,1.66l-5.9-4V10.75a1,1,0,0,1,1.91-.41A3.65,3.65,0,0,1,19,9.89L20.74,7A11.19,11.19,0,0,0,18,6.6a11.39,11.39,0,0,0-2.69,22.47L15,30.63A13,13,0,0,1,18,5a12.8,12.8,0,0,1,3.57.51l1.53-2.66A16,16,0,1,0,34,18,16,16,0,0,0,33.77,15.39Z"></path><path d="M26.85 1.14L21.13 11a1.28 1.28 0 001.1 2h11.45a1.28 1.28 0 001.1-2l-5.72-9.86a1.28 1.28 0 00-2.21 0z" class="alert"></path></svg>