<svg viewBox="0 0 36 36" xmlns="http://www.w3.org/2000/svg" width="36" height="36"><path d="M14,4H6A2,2,0,0,0,4,6v8a2,2,0,0,0,2,2h8a2,2,0,0,0,2-2V6A2,2,0,0,0,14,4ZM6,14V6h8v8Z"></path><path d="M30,4H22a2,2,0,0,0-2,2v8a2,2,0,0,0,2,2h8a2,2,0,0,0,2-2V6A2,2,0,0,0,30,4ZM22,14V6h8v8Z"></path><path d="M14,20H6a2,2,0,0,0-2,2v8a2,2,0,0,0,2,2h8a2,2,0,0,0,2-2V22A2,2,0,0,0,14,20ZM6,30V22h8v8Z"></path><path d="M30,20H22a2,2,0,0,0-2,2v8a2,2,0,0,0,2,2h8a2,2,0,0,0,2-2V22A2,2,0,0,0,30,20ZM22,30V22h8v8Z"></path></svg>