<svg viewBox="0 0 36 36" xmlns="http://www.w3.org/2000/svg" width="36" height="36"><path d="M28.67,32h-22a1,1,0,0,0,0,2h22a1,1,0,1,0,0-2Z"></path><path d="M6.67,4H22.45L23.6,2H6.67a1,1,0,1,0,0,2Z"></path><path d="M12.51,20.27a6.07,6.07,0,0,0-2.45,4.55v5.12H25V24.82a6.07,6.07,0,0,0-2.45-4.55,11.48,11.48,0,0,0-2.91-1.72V17.39a11.48,11.48,0,0,0,2.91-1.72l.3-.27h-.62A3.68,3.68,0,0,1,19,9.89L21.29,6H10.06v5.12a6.07,6.07,0,0,0,2.45,4.55,11.48,11.48,0,0,0,2.91,1.72v1.16A11.48,11.48,0,0,0,12.51,20.27Z"></path><path d="M26.85 1.14L21.13 11a1.28 1.28 0 001.1 2h11.45a1.28 1.28 0 001.1-2l-5.72-9.86a1.28 1.28 0 00-2.21 0z" class="alert"></path></svg>