<svg viewBox="0 0 36 36" xmlns="http://www.w3.org/2000/svg" width="36" height="36"><rect x="6.33" y="10.71" width="9.71" height="2.57" rx="1" ry="1" transform="translate(-5.21 11.43) rotate(-45)"></rect><path d="M23.35,16.8l.63-.63a5,5,0,0,0,.63-.77H22.23l-.29,0L20.52,16.8,32,28.28V32H28.86l-1.77-1.76v-2.8H23.41v-3H18.8l-3-3L14,23.31a3,3,0,0,1-4.24,0L4.5,18a3,3,0,0,1,0-4.24l8.56-8.56a3,3,0,0,1,4.24,0L20.1,8.06l1-1.79L18.71,3.84a5,5,0,0,0-7.07,0L3.09,12.39a5,5,0,0,0,0,7.07l5.26,5.26a5,5,0,0,0,7.07,0l.4-.4L18,26.48h3.44v3h3.69v1.63L28,34h6V27.45Z"></path><path d="M26.85 1.14L21.13 11a1.28 1.28 0 001.1 2h11.45a1.28 1.28 0 001.1-2l-5.72-9.86a1.28 1.28 0 00-2.21 0z" class="alert"></path></svg>