<svg viewBox="0 0 36 36" xmlns="http://www.w3.org/2000/svg" width="36" height="36"><path d="M28,18H8a1,1,0,0,0,0,2H9V32H27V20h1a1,1,0,0,0,0-2ZM25,30H11V20H25Z"></path><polygon points="31 15.4 31 22.09 29.08 22.09 29.08 24 33 24 33 15.4 31 15.4"></polygon><path d="M5,13a2,2,0,0,1,2-2H18.64A3.65,3.65,0,0,1,19,9.89L19.54,9H11V7h9.71l1.13-2H9V9H7a4,4,0,0,0-4,4V24H6.92V22.09H5Z"></path><path d="M26.85 1.14L21.13 11a1.28 1.28 0 001.1 2h11.45a1.28 1.28 0 001.1-2l-5.72-9.86a1.28 1.28 0 00-2.21 0z" class="alert"></path></svg>