<svg viewBox="0 0 36 36" xmlns="http://www.w3.org/2000/svg" width="36" height="36"><path d="M3.24 5.53L11.71 14a10.94 10.94 0 00-8.3 3.11 1 1 0 000 1.41l6.33 6.33-7.45 7.44a1 1 0 101.3 1.52l.11-.11 7.44-7.44 6.33 6.33a1 1 0 001.42 0 11 11 0 003.1-8.3l8.34 8.34 1.41-1.41L4.65 4.12zm14.89 24.91L5.58 17.87a9 9 0 018.65-1.34l5.25 5.25a9 9 0 01-1.35 8.66zM33.71 14.89L21.11 2.3a1 1 0 00-1.41 1.41L32.29 16.3a1 1 0 001.42-1.41zM22.425 18.85l4.695-4.695 1.407 1.407-4.695 4.695zM20.44 7.48l-4.7 4.7 1.42 1.42 4.71-4.71z"></path></svg>