<svg viewBox="0 0 36 36" xmlns="http://www.w3.org/2000/svg" width="36" height="36"><path d="M12,16.14q-.43,0-.87,0a8.67,8.67,0,0,0-6.43,2.52l-.24.28v8.28H8.54v-4.7l.55-.62.25-.29a11,11,0,0,1,4.71-2.86A6.59,6.59,0,0,1,12,16.14Z"></path><path d="M31.34,18.63a8.67,8.67,0,0,0-6.43-2.52,10.47,10.47,0,0,0-1.09.06,6.59,6.59,0,0,1-2,2.45,10.91,10.91,0,0,1,5,3l.25.28.54.62v4.71h3.94V18.91Z"></path><path d="M11.1,14.19c.11,0,.2,0,.31,0a6.45,6.45,0,0,1,3.11-6.29,4.09,4.09,0,1,0-3.42,6.33Z"></path><path d="M18.11,20.3A9.69,9.69,0,0,0,11,23l-.25.28v6.33a1.57,1.57,0,0,0,1.6,1.54H23.84a1.57,1.57,0,0,0,1.6-1.54V23.3L25.2,23A9.58,9.58,0,0,0,18.11,20.3Z"></path><path d="M17.87,17.92a4.46,4.46,0,0,0,4-2.54A3.67,3.67,0,0,1,19,9.89l.35-.61A4.42,4.42,0,0,0,17.87,9a4.47,4.47,0,1,0,0,8.93Z"></path><path d="M26.85 1.14L21.13 11a1.28 1.28 0 001.1 2h11.45a1.28 1.28 0 001.1-2l-5.72-9.86a1.28 1.28 0 00-2.21 0z" class="alert"></path></svg>