<svg viewBox="0 0 36 36" xmlns="http://www.w3.org/2000/svg" width="36" height="36"><path d="M33.68,15.4H22.23A3.68,3.68,0,0,1,19,9.89L21.29,6H12.2V9A2.2,2.2,0,0,1,7.8,9V6h-4A1.78,1.78,0,0,0,2,7.81V30.19A1.78,1.78,0,0,0,3.75,32h28.5A1.78,1.78,0,0,0,34,30.19V15.38ZM10,26H8V24h2Zm0-5H8V19h2Zm0-5H8V14h2Zm6,10H14V24h2Zm0-5H14V19h2Zm0-5H14V14h2Zm6,10H20V24h2Zm0-5H20V19h2Zm6,5H26V24h2Zm0-5H26V19h2Z"></path><path d="M10,10a1,1,0,0,0,1-1V3A1,1,0,0,0,9,3V9A1,1,0,0,0,10,10Z"></path><path d="M26.85 1.14L21.13 11a1.28 1.28 0 001.1 2h11.45a1.28 1.28 0 001.1-2l-5.72-9.86a1.28 1.28 0 00-2.21 0z" class="alert"></path></svg>