<svg viewBox="0 0 36 36" xmlns="http://www.w3.org/2000/svg" width="36" height="36"><path d="M33.68,15.4H32V30H4V8H7V6H3.75A1.78,1.78,0,0,0,2,7.81V30.19A1.78,1.78,0,0,0,3.75,32h28.5A1.78,1.78,0,0,0,34,30.19V15.38Z"></path><rect x="8" y="14" width="2" height="2"></rect><rect x="14" y="14" width="2" height="2"></rect><rect x="8" y="19" width="2" height="2"></rect><rect x="14" y="19" width="2" height="2"></rect><rect x="20" y="19" width="2" height="2"></rect><rect x="26" y="19" width="2" height="2"></rect><rect x="8" y="24" width="2" height="2"></rect><rect x="14" y="24" width="2" height="2"></rect><rect x="20" y="24" width="2" height="2"></rect><rect x="26" y="24" width="2" height="2"></rect><path d="M10,10a1,1,0,0,0,1-1V3A1,1,0,0,0,9,3V9A1,1,0,0,0,10,10Z"></path><polygon points="21.29 6 13 6 13 8 20.14 8 21.29 6"></polygon><path d="M26.85 1.14L21.13 11a1.28 1.28 0 001.1 2h11.45a1.28 1.28 0 001.1-2l-5.72-9.86a1.28 1.28 0 00-2.21 0z" class="alert"></path></svg>