<svg viewBox="0 0 36 36" xmlns="http://www.w3.org/2000/svg" width="36" height="36"><path d="M33.68,15.4H25.77l-6.52,6.49a2,2,0,0,1-2.82,0L2,7.5a2,2,0,0,0-.07.5V28a2,2,0,0,0,2,2h28a2,2,0,0,0,2-2V15.38ZM5.3,28H3.91V26.57l7.27-7.21,1.41,1.41Zm26.61,0H30.51l-7.29-7.23,1.41-1.41,7.27,7.21Z"></path><path d="M22.94,15.4h-.7A3.68,3.68,0,0,1,19,9.89L21.29,6H3.92a2,2,0,0,0-.53.08L17.84,20.47Z"></path><path d="M26.85 1.14L21.13 11a1.28 1.28 0 001.1 2h11.45a1.28 1.28 0 001.1-2l-5.72-9.86a1.28 1.28 0 00-2.21 0z" class="alert"></path></svg>