<svg viewBox="0 0 36 36" xmlns="http://www.w3.org/2000/svg" width="36" height="36"><path d="M19,9.89,19.56,9H12V7.33A.33.33,0,0,1,12.33,7H16V6a2,2,0,0,1,4,0V7h.71l1.16-2a4,4,0,0,0-7.74,0H12.33A2.34,2.34,0,0,0,10,7.33V11h8.64A3.65,3.65,0,0,1,19,9.89Z"></path><path d="M24.19,15.4l-7.53,7.53L12.72,19A1,1,0,0,0,11.3,20.4l5.36,5.36L26.71,15.71a1,1,0,0,0,.2-.31Z"></path><path d="M29,15.4V32H7V7H9V5H7A1.75,1.75,0,0,0,5,6.69V32.31A1.7,1.7,0,0,0,6.71,34H29.29A1.7,1.7,0,0,0,31,32.31V15.4Z"></path><path d="M26.85 1.14L21.13 11a1.28 1.28 0 001.1 2h11.45a1.28 1.28 0 001.1-2l-5.72-9.86a1.28 1.28 0 00-2.21 0z" class="alert"></path></svg>