<svg viewBox="0 0 36 36" xmlns="http://www.w3.org/2000/svg" width="36" height="36"><path d="M10,10a1,1,0,0,0,1-1V3A1,1,0,0,0,9,3V9A1,1,0,0,0,10,10Z"></path><path d="M33.68,15.4H26.3a1.34,1.34,0,0,1-.36,1.18l-9.67,9.67L11,20.94A1.36,1.36,0,0,1,12.9,19l3.38,3.38,7-7h-1A3.68,3.68,0,0,1,19,9.89L21.29,6H12.2V9A2.2,2.2,0,0,1,7.8,9V6h-4A1.78,1.78,0,0,0,2,7.81V30.19A1.78,1.78,0,0,0,3.75,32h28.5A1.78,1.78,0,0,0,34,30.19V15.38Z"></path><path d="M26.85 1.14L21.13 11a1.28 1.28 0 001.1 2h11.45a1.28 1.28 0 001.1-2l-5.72-9.86a1.28 1.28 0 00-2.21 0z" class="alert"></path></svg>