<svg viewBox="0 0 36 36" xmlns="http://www.w3.org/2000/svg" width="36" height="36"><path d="M33.68,15.4H22.23A3.69,3.69,0,0,1,19,13.56a3.63,3.63,0,0,1-.26-.56H11.17a2.59,2.59,0,0,0-2.25,1.52,1,1,0,0,0,0,.14L6,25V7h6.49l2.61,3.59a1,1,0,0,0,.81.41h2.73A3.66,3.66,0,0,1,19,9.89L19.56,9H16.42L14.11,5.82A2,2,0,0,0,12.49,5H6A2,2,0,0,0,4,7V29.69A1.37,1.37,0,0,0,5.41,31H30.34a1,1,0,0,0,1-.72l4.19-15.1a1.68,1.68,0,0,0,.07-.32A3.67,3.67,0,0,1,33.68,15.4Z"></path><path d="M26.85 1.14L21.13 11a1.28 1.28 0 001.1 2h11.45a1.28 1.28 0 001.1-2l-5.72-9.86a1.28 1.28 0 00-2.21 0z" class="alert"></path></svg>