<svg viewBox="0 0 36 36" xmlns="http://www.w3.org/2000/svg" width="36" height="36"><path d="M30.47,24.37a17.16,17.16,0,0,0-24.93,0A2,2,0,0,0,5,25.74V31a2,2,0,0,0,2,2H29a2,2,0,0,0,2-2V25.74A2,2,0,0,0,30.47,24.37ZM29,31H7V25.73a15.17,15.17,0,0,1,22,0h0Z"></path><path d="M18,17a7,7,0,0,0,4.45-1.6h-.22A3.68,3.68,0,0,1,20,14.6a5,5,0,1,1,1.24-8.42l1-1.76A7,7,0,1,0,18,17Z"></path><path d="M26.85 1.14L21.13 11a1.28 1.28 0 001.1 2h11.45a1.28 1.28 0 001.1-2l-5.72-9.86a1.28 1.28 0 00-2.21 0z" class="alert"></path></svg>