<svg viewBox="0 0 36 36" xmlns="http://www.w3.org/2000/svg" width="36" height="36"><path d="M7.24006 34C6.98006 34 6.73006 33.9 6.53006 33.71L2.29006 29.47C1.90006 29.08 1.90006 28.45 2.29006 28.06L4.41006 25.94C5.97006 24.38 8.51006 24.38 10.0701 25.94C11.6301 27.5 11.6301 30.04 10.0701 31.6L7.95006 33.72C7.75006 33.92 7.50006 34.01 7.24006 34.01V34Z"></path><path d="M28.76 11.23C27.81 11.23 26.91 10.9 26.18 10.28C25.37 9.58997 24.87 8.61997 24.78 7.55997C24.69 6.49997 25.03 5.45997 25.72 4.64997L27.66 2.35997C28.02 1.93997 28.65 1.88997 29.07 2.24997L33.64 6.12997C34.06 6.48997 34.11 7.11997 33.75 7.53997L31.81 9.82997C31.12 10.64 30.15 11.14 29.09 11.23C28.98 11.23 28.87 11.24 28.76 11.24V11.23Z"></path><path d="M26.2964 8.30073L8.66113 25.936L10.0753 27.3502L27.7106 9.71495L26.2964 8.30073Z"></path><path d="M12.59 16.59C12.59 15.52 13.01 14.52 13.76 13.76C14.51 13 15.52 12.59 16.59 12.59C17.32 12.59 18.01 12.8 18.62 13.16L21.49 10.29C13.38 3.58002 3.58996 2.08002 3.13996 2.01002C2.82996 1.96002 2.50996 2.07002 2.28996 2.29002C2.06996 2.51002 1.95996 2.83002 2.00996 3.14002C2.07996 3.59002 3.57996 13.37 10.28 21.49L13.15 18.62C12.79 18.01 12.58 17.32 12.58 16.59H12.59Z"></path><path d="M16.59 14.59C16.06 14.59 15.55 14.8 15.18 15.18C14.8 15.56 14.59 16.06 14.59 16.59C14.59 16.77 14.62 16.94 14.67 17.11L17.12 14.66C16.95 14.61 16.78 14.58 16.6 14.58L16.59 14.59Z"></path><path d="M20.83 20.83C21.21 20.45 21.42 19.95 21.42 19.42C21.42 18.89 21.21 18.38 20.83 18.01L18.72 15.9L15.89 18.73L18 20.84C18.76 21.6 20.07 21.6 20.83 20.84V20.83Z"></path><path d="M23.71 12.29C23.48 12.06 23.24 11.83 23 11.6L20.13 14.47L22.24 16.58C23 17.34 23.41 18.34 23.41 19.41C23.41 20.48 22.99 21.48 22.24 22.24C21.49 23 20.48 23.41 19.41 23.41C18.34 23.41 17.34 22.99 16.58 22.24L14.47 20.13L11.6 23C11.82 23.24 12.05 23.48 12.29 23.71C20.71 32.13 32.36 33.92 32.85 33.99C32.9 33.99 32.95 34 32.99 34C33.25 34 33.51 33.9 33.7 33.71C33.92 33.49 34.03 33.17 33.98 32.86C33.91 32.37 32.12 20.72 23.7 12.3L23.71 12.29Z"></path></svg>