<svg viewBox="0 0 36 36" xmlns="http://www.w3.org/2000/svg" width="36" height="36"><path d="M9 26C7.35 26 6 24.65 6 23V13C6 11.35 7.35 10 9 10C10.65 10 12 11.35 12 13V23C12 24.65 10.65 26 9 26Z"></path><path d="M5 23C3.35 23 2 21.65 2 20V16C2 14.35 3.35 13 5 13C6.65 13 8 14.35 8 16V20C8 21.65 6.65 23 5 23Z"></path><path d="M27 26C25.35 26 24 24.65 24 23V13C24 11.35 25.35 10 27 10C28.65 10 30 11.35 30 13V23C30 24.65 28.65 26 27 26Z"></path><path d="M31 23C29.35 23 28 21.65 28 20V16C28 14.35 29.35 13 31 13C32.65 13 34 14.35 34 16V20C34 21.65 32.65 23 31 23Z"></path><path d="M25 17H11V19H25V17Z"></path></svg>