<svg viewBox="0 0 36 36" xmlns="http://www.w3.org/2000/svg" width="36" height="36"><path d="M28 34H26V13H10V34H8V12C8 11.45 8.45 11 9 11H27C27.55 11 28 11.45 28 12V34Z"></path><path d="M6.89 1.58997L8.1 4.02997L10.79 4.41997L8.84 6.31997L9.3 8.99997L6.89 7.72997L4.49 8.99997L4.95 6.31997L3 4.41997L5.69 4.02997L6.89 1.58997Z"></path><path d="M17.89 1.58997L19.1 4.02997L21.79 4.41997L19.84 6.31997L20.3 8.99997L17.89 7.72997L15.49 8.99997L15.95 6.31997L14 4.41997L16.69 4.02997L17.89 1.58997Z"></path><path d="M28.89 1.58997L30.1 4.02997L32.79 4.41997L30.84 6.31997L31.3 8.99997L28.89 7.72997L26.49 8.99997L26.95 6.31997L25 4.41997L27.69 4.02997L28.89 1.58997Z"></path><path d="M4 34H2V18C2 17.45 2.45 17 3 17H6V19H4V34Z"></path><path d="M34 34H32V19H30V17H33C33.55 17 34 17.45 34 18V34Z"></path><path d="M15 16H13V18H15V16Z"></path><path d="M19 16H17V18H19V16Z"></path><path d="M23 16H21V18H23V16Z"></path><path d="M15 20H13V22H15V20Z"></path><path d="M19 20H17V22H19V20Z"></path><path d="M23 20H21V22H23V20Z"></path><path d="M15 24H13V26H15V24Z"></path><path d="M19 24H17V26H19V24Z"></path><path d="M23 24H21V26H23V24Z"></path></svg>