<svg viewBox="0 0 36 36" xmlns="http://www.w3.org/2000/svg" width="36" height="36"><path d="M6.89 1.58997L8.1 4.02997L10.79 4.41997L8.84 6.31997L9.3 8.99997L6.89 7.72997L4.49 8.99997L4.95 6.31997L3 4.41997L5.69 4.02997L6.89 1.58997Z"></path><path d="M17.89 1.58997L19.1 4.02997L21.79 4.41997L19.84 6.31997L20.3 8.99997L17.89 7.72997L15.49 8.99997L15.95 6.31997L14 4.41997L16.69 4.02997L17.89 1.58997Z"></path><path d="M28.89 1.58997L30.1 4.02997L32.79 4.41997L30.84 6.31997L31.3 8.99997L28.89 7.72997L26.49 8.99997L26.95 6.31997L25 4.41997L27.69 4.02997L28.89 1.58997Z"></path><path d="M4 34H2V18C2 17.45 2.45 17 3 17H6V19H4V34Z"></path><path d="M34 34H32V19H30V17H33C33.55 17 34 17.45 34 18V34Z"></path><path d="M27 11H9C8.45 11 8 11.45 8 12V34H28V12C28 11.45 27.55 11 27 11ZM15 26H13V24H15V26ZM15 22H13V20H15V22ZM15 18H13V16H15V18ZM19 26H17V24H19V26ZM19 22H17V20H19V22ZM19 18H17V16H19V18ZM23 26H21V24H23V26ZM23 22H21V20H23V22ZM23 18H21V16H23V18Z"></path></svg>