<svg viewBox="0 0 36 36" xmlns="http://www.w3.org/2000/svg" width="36" height="36"><path d="M29 34H7C6.45 34 6 33.55 6 33V6C6 5.45 6.45 5 7 5H29C29.55 5 30 5.45 30 6V33C30 33.55 29.55 34 29 34ZM8 32H28V7H8V32Z"></path><path d="M7.00001 7.00001C6.51001 7.00001 6.09001 6.64001 6.01001 6.15001C5.93001 5.60001 6.30001 5.09001 6.85001 5.01001L26.85 2.01001C27.41 1.93001 27.91 2.30001 27.99 2.85001C28.07 3.40001 27.7 3.91001 27.15 3.99001L7.15001 6.99001C7.10001 6.99001 7.05001 7.00001 7.00001 7.00001Z"></path><path d="M18 27.9C13.64 27.9 10.1 24.36 10.1 20C10.1 15.64 13.64 12.1 18 12.1C22.36 12.1 25.9 15.64 25.9 20C25.9 24.36 22.36 27.9 18 27.9ZM18 13.9C14.64 13.9 11.9 16.64 11.9 20C11.9 23.36 14.64 26.1 18 26.1C21.36 26.1 24.1 23.36 24.1 20C24.1 16.64 21.36 13.9 18 13.9Z"></path><path d="M18 27.9C17.75 27.9 17.52 27.8 17.35 27.62C17.22 27.48 14.1 24.18 14.1 20C14.1 15.82 17.22 12.52 17.35 12.38C17.69 12.03 18.31 12.03 18.65 12.38C18.78 12.52 21.9 15.82 21.9 20C21.9 24.18 18.78 27.48 18.65 27.62C18.48 27.8 18.24 27.9 18 27.9ZM18 14.42C17.19 15.52 15.9 17.63 15.9 20C15.9 22.37 17.19 24.48 18 25.58C18.81 24.48 20.1 22.37 20.1 20C20.1 17.63 18.81 15.52 18 14.42Z"></path><path d="M25 17.1H11V18.9H25V17.1Z"></path><path d="M25 21.1H11V22.9H25V21.1Z"></path></svg>