<svg viewBox="0 0 36 36" xmlns="http://www.w3.org/2000/svg" width="36" height="36"><path d="M33 11H3C2.45 11 2 11.45 2 12V31C2 31.55 2.45 32 3 32H33C33.55 32 34 31.55 34 31V12C34 11.45 33.55 11 33 11ZM26.16 23.59C26.01 23.89 25.7 24.08 25.36 24.08H19.05L15.5 27.64C15.33 27.81 15.1 27.9 14.86 27.9H12C11.69 27.9 11.4 27.74 11.23 27.47C11.07 27.2 11.05 26.87 11.19 26.59L12.45 24.07H9C8.66 24.07 8.35 23.88 8.2 23.57L6.29 19.75C6.07 19.31 6.25 18.77 6.69 18.54C7.14 18.32 7.68 18.5 7.9 18.94L9.56 22.26H13.91C14.22 22.26 14.51 22.42 14.68 22.69C14.85 22.96 14.86 23.29 14.72 23.57L13.46 26.09H14.49L18.04 22.54C18.21 22.37 18.44 22.28 18.68 22.28H23.61L22.29 20.44C22.07 20.13 21.69 19.95 21.31 19.98L11.1 20.81L10.24 19.07L12.83 18.86L11.25 16.49C11.07 16.21 11.05 15.86 11.21 15.57C11.37 15.28 11.67 15.09 12 15.09H15C15.24 15.09 15.47 15.18 15.64 15.35L18.64 18.35C18.64 18.35 18.65 18.37 18.66 18.38L21.17 18.18C22.18 18.09 23.17 18.56 23.76 19.38L26.1 22.64C26.3 22.91 26.32 23.28 26.17 23.58L26.16 23.59ZM30 30H28V29H30V30ZM30 27H28V25H30V27ZM30 23H28V21H30V23ZM30 19H28V17H30V19ZM30 15H28V13H30V15Z"></path><path d="M13.68 16.9L14.75 18.5C14.79 18.56 14.81 18.64 14.83 18.71L16.31 18.59L14.62 16.9H13.67H13.68Z"></path><path d="M2.17999 13C2.80999 12.69 3.57999 12.71 4.25999 12.97L4.23999 12.92L27.27 6.08002L28.29 9.51002H30.38L28.91 4.55002C28.78 4.12002 28.38 3.83002 27.95 3.83002C27.86 3.83002 27.76 3.84002 27.67 3.87002L2.71999 11.28C2.46999 11.36 2.24999 11.53 2.12999 11.76C1.99999 11.99 1.96999 12.27 2.04999 12.52L2.18999 12.99L2.17999 13Z"></path></svg>