<svg viewBox="0 0 36 36" xmlns="http://www.w3.org/2000/svg" width="36" height="36"><path d="M33 32H3C2.45 32 2 31.55 2 31V12C2 11.45 2.45 11 3 11H33C33.55 11 34 11.45 34 12V31C34 31.55 33.55 32 33 32ZM4 30H32V13H4V30Z"></path><path d="M30 30H28V29H30V30ZM30 27H28V25H30V27ZM30 23H28V21H30V23ZM30 19H28V17H30V19ZM30 15H28V13H30V15Z"></path><path d="M14.0001 19.9C13.7101 19.9 13.4201 19.76 13.2501 19.5L11.2501 16.5C11.0701 16.22 11.0501 15.87 11.2101 15.58C11.3701 15.29 11.6701 15.1 12.0001 15.1H15.0001C15.2401 15.1 15.4701 15.19 15.6401 15.36L18.6401 18.36C18.9901 18.71 18.9901 19.28 18.6401 19.63C18.2901 19.98 17.7201 19.98 17.3701 19.63L14.6301 16.89H13.6801L14.7501 18.49C15.0301 18.9 14.9101 19.46 14.5001 19.74C14.3501 19.84 14.1701 19.89 14.0001 19.89V19.9Z"></path><path d="M26.0899 22.66L23.7499 19.4C23.1599 18.58 22.1699 18.11 21.1599 18.2L10.2399 19.08L11.0999 20.82L21.3099 19.99C21.6899 19.95 22.0699 20.13 22.2899 20.45L23.6099 22.29H18.6799C18.4399 22.29 18.2099 22.38 18.0399 22.55L14.4899 26.1H13.4599L14.7199 23.58C14.8599 23.3 14.8399 22.97 14.6799 22.7C14.5199 22.43 14.2299 22.27 13.9099 22.27H9.55994L7.89994 18.95C7.67994 18.51 7.13994 18.32 6.68994 18.55C6.24994 18.77 6.06994 19.31 6.28994 19.76L8.19994 23.58C8.34994 23.89 8.65994 24.08 8.99994 24.08H12.4499L11.1899 26.6C11.0499 26.88 11.0699 27.21 11.2299 27.48C11.3899 27.74 11.6799 27.91 11.9999 27.91H14.8599C15.0999 27.91 15.3299 27.82 15.4999 27.65L19.0499 24.09H25.3599C25.6999 24.09 26.0099 23.9 26.1599 23.6C26.3099 23.3 26.2899 22.94 26.0899 22.66Z"></path><path d="M2.17999 13C2.80999 12.69 3.57999 12.71 4.25999 12.97L4.23999 12.92L27.27 6.08002L28.29 9.51002H30.38L28.91 4.55002C28.78 4.12002 28.38 3.83002 27.95 3.83002C27.86 3.83002 27.76 3.84002 27.67 3.87002L2.71999 11.28C2.46999 11.36 2.24999 11.53 2.12999 11.76C1.99999 11.99 1.96999 12.27 2.04999 12.52L2.18999 12.99L2.17999 13Z"></path></svg>