<svg viewBox="0 0 36 36" xmlns="http://www.w3.org/2000/svg" width="36" height="36"><path d="M12 34C11.45 34 11 33.55 11 33V31C11 30.45 11.45 30 12 30C12.55 30 13 30.45 13 31V33C13 33.55 12.55 34 12 34Z"></path><path d="M24 34C23.45 34 23 33.55 23 33V31C23 30.45 23.45 30 24 30C24.55 30 25 30.45 25 31V33C25 33.55 24.55 34 24 34Z"></path><path d="M22 6H20V4H16V6H14V3C14 2.45 14.45 2 15 2H21C21.55 2 22 2.45 22 3V6Z"></path><path d="M26.13 8H9.87C8.29 8 7 9.29 7 10.87V29.13C7 30.71 8.29 32 9.87 32H26.13C27.71 32 29 30.71 29 29.13V10.87C29 9.29 27.71 8 26.13 8ZM14 27C14 27.55 13.55 28 13 28C12.45 28 12 27.55 12 27V13C12 12.45 12.45 12 13 12C13.55 12 14 12.45 14 13V27ZM19 27C19 27.55 18.55 28 18 28C17.45 28 17 27.55 17 27V13C17 12.45 17.45 12 18 12C18.55 12 19 12.45 19 13V27ZM24 27C24 27.55 23.55 28 23 28C22.45 28 22 27.55 22 27V13C22 12.45 22.45 12 23 12C23.55 12 24 12.45 24 13V27Z"></path></svg>