<svg viewBox="0 0 36 36" xmlns="http://www.w3.org/2000/svg" width="36" height="36"><path d="M33 30H32.01L19.16 8.36998L20.86 5.50998C21.14 5.02998 20.98 4.41998 20.51 4.13998C20.04 3.85998 19.42 4.01998 19.14 4.48998L18 6.40998L16.86 4.48998C16.58 4.01998 15.96 3.85998 15.49 4.13998C15.02 4.41998 14.86 5.03998 15.14 5.50998L16.84 8.36998L3.99 30H3C2.45 30 2 30.45 2 31C2 31.55 2.45 32 3 32H33C33.55 32 34 31.55 34 31C34 30.45 33.55 30 33 30ZM21.46 28L18 22L14.54 28H12.23L17.14 19.5C17.5 18.88 18.52 18.88 18.87 19.5L23.78 28H21.47H21.46Z"></path></svg>