<svg viewBox="0 0 36 36" xmlns="http://www.w3.org/2000/svg" width="36" height="36"><path d="M4.56004 32C4.39004 32 4.21004 31.96 4.05004 31.86C3.58004 31.58 3.42004 30.96 3.70004 30.49L19.14 4.48998C19.42 4.01998 20.04 3.85998 20.51 4.13998C20.98 4.41998 21.14 5.03998 20.86 5.50998L5.42004 31.51C5.23004 31.82 4.90004 32 4.56004 32Z"></path><path d="M31.44 32C31.1 32 30.77 31.83 30.58 31.51L15.14 5.50998C14.86 5.02998 15.02 4.41998 15.49 4.13998C15.96 3.85998 16.58 4.00998 16.86 4.48998L32.3 30.49C32.58 30.97 32.42 31.58 31.95 31.86C31.79 31.95 31.61 32 31.44 32Z"></path><path d="M33 32H3C2.45 32 2 31.55 2 31C2 30.45 2.45 30 3 30H33C33.55 30 34 30.45 34 31C34 31.55 33.55 32 33 32Z"></path><path d="M14.54 28L18 22L21.46 28H23.77L18.86 19.5C18.5 18.88 17.48 18.88 17.13 19.5L12.22 28H14.53H14.54Z"></path></svg>