<svg viewBox="0 0 36 36" xmlns="http://www.w3.org/2000/svg" width="36" height="36"><path d="M29 28H7C6.45 28 6 27.55 6 27V5.09C6 3.38 7.39 2 9.09 2H26.91C28.62 2 30 3.39 30 5.09V27C30 27.55 29.55 28 29 28ZM8 26H28V5.09C28 4.49 27.51 4 26.91 4H9.09C8.49 4 8 4.49 8 5.09V26Z"></path><path d="M25 16H11C10.45 16 10 15.55 10 15V7C10 6.45 10.45 6 11 6H25C25.55 6 26 6.45 26 7V15C26 15.55 25.55 16 25 16ZM12 14H24V8H12V14Z"></path><path d="M13 24C11.35 24 10 22.65 10 21C10 19.35 11.35 18 13 18C14.65 18 16 19.35 16 21C16 22.65 14.65 24 13 24ZM13 20C12.45 20 12 20.45 12 21C12 21.55 12.45 22 13 22C13.55 22 14 21.55 14 21C14 20.45 13.55 20 13 20Z"></path><path d="M23 24C21.35 24 20 22.65 20 21C20 19.35 21.35 18 23 18C24.65 18 26 19.35 26 21C26 22.65 24.65 24 23 24ZM23 20C22.45 20 22 20.45 22 21C22 21.55 22.45 22 23 22C23.55 22 24 21.55 24 21C24 20.45 23.55 20 23 20Z"></path><path d="M9.67 30L6.74 32.2C6.3 32.53 6.21 33.16 6.54 33.6C6.74 33.86 7.04 34 7.34 34C7.55 34 7.76 33.93 7.94 33.8L13.01 30H9.68H9.67Z"></path><path d="M29.6 32.2L26.67 30H23.34L28.41 33.8C28.59 33.93 28.8 34 29.01 34C29.31 34 29.61 33.86 29.81 33.6C30.14 33.16 30.05 32.53 29.61 32.2H29.6Z"></path></svg>