<svg viewBox="0 0 36 36" xmlns="http://www.w3.org/2000/svg" width="36" height="36"><path d="M 34 29 C 34 30.105 33.105 31 32 31 L 4 31 C 2.896 31 2 30.105 2 29 L 2 7 C 2 5.896 2.896 5 4 5 L 21.958 5 L 17.625 12.395 C 16.795 13.601 17.594 15.245 19.064 15.351 C 19.134 15.357 19.201 15.359 19.27 15.357 L 34 15.357 Z M 6.007 26.731 L 27.73 26.73 C 28.49 26.67 28.91 25.8 28.47 25.17 C 28.3 24.92 28.03 24.76 27.73 24.74 L 8.001 24.736 L 8.01 11.01 C 8.01 10.23 7.17 9.75 6.5 10.14 C 6.19 10.31 6 10.65 6 11.01 Z"></path><path d="M26.85 1.14L21.13 11a1.28 1.28 0 001.1 2h11.45a1.28 1.28 0 001.1-2l-5.72-9.86a1.28 1.28 0 00-2.21 0z" class="alert"></path></svg>