<svg viewBox="0 0 36 36" xmlns="http://www.w3.org/2000/svg" width="36" height="36"><path d="M 34 29 C 34 30.105 33.105 31 32 31 L 4 31 C 2.895 31 2 30.105 2 29 L 2 7 C 2 5.895 2.895 5 4 5 L 21.958 5 L 20.786 7 L 4 7 L 4 29 L 32 29 L 32 15.357 L 34 15.357 Z"></path><path d="M 7 10 L 13 10 L 13 26 L 11.4 26 L 11.4 11.6 L 8.6 11.6 L 8.6 26 L 7 26 Z"></path><path d="M 15 19 L 21 19 L 21 26 L 19.4 26 L 19.4 20.6 L 16.6 20.6 L 16.6 26 L 15 26 Z"></path><path d="M 23 16 L 29 16 L 29 26 L 27.4 26 L 27.4 17.6 L 24.6 17.6 L 24.6 26 L 23 26 Z"></path><path d="M26.85 1.14L21.13 11a1.28 1.28 0 001.1 2h11.45a1.28 1.28 0 001.1-2l-5.72-9.86a1.28 1.28 0 00-2.21 0z" class="alert"></path></svg>