<svg viewBox="0 0 36 36" xmlns="http://www.w3.org/2000/svg" width="36" height="36"><path d="M 34 29 C 34 30.105 33.105 31 32 31 L 4 31 C 2.895 31 2 30.105 2 29 L 2 7 C 2 5.895 2.895 5 4 5 L 21.958 5 L 19.028 10 L 19 10 L 19 10.048 L 17.625 12.395 C 16.807 13.583 17.571 15.197 19 15.345 L 19 24 L 29 24 L 29 15.357 L 34 15.357 Z M 7 26 L 17 26 L 17 12 L 7 12 Z M 9 19 L 15 19 L 15 24 L 9 24 Z M 15 17 L 9 17 L 9 14 L 15 14 Z M 27 17 L 21 17 L 21 15.357 L 27 15.357 Z M 27 22 L 21 22 L 21 19 L 27 19 Z"></path><path d="M26.85 1.14L21.13 11a1.28 1.28 0 001.1 2h11.45a1.28 1.28 0 001.1-2l-5.72-9.86a1.28 1.28 0 00-2.21 0z" class="alert"></path></svg>