<svg viewBox="0 0 36 36" xmlns="http://www.w3.org/2000/svg" width="36" height="36"><path d="M 34 29 C 34 30.105 33.105 31 32 31 L 4 31 C 2.895 31 2 30.105 2 29 L 2 7 C 2 5.895 2.895 5 4 5 L 21.958 5 L 20.786 7 L 4 7 L 4 29 L 32 29 L 32 15.357 L 34 15.357 Z"></path><path d="M 7 12 L 17 12 L 17 26 L 7 26 L 7 12 Z M 8.6 24.4 L 15.4 24.4 L 15.4 18.8 L 8.6 18.8 L 8.6 24.4 Z M 15.4 13.6 L 8.6 13.6 L 8.6 17.2 L 15.4 17.2 L 15.4 13.6 Z"></path><path d="M 29 24 L 19 24 L 19 15.345 C 19.021 15.348 20.6 15.36 20.6 15.36 L 20.6 17.2 L 27.4 17.2 L 27.4 15.36 L 29 15.357 L 29 24 Z M 27.4 18.8 L 20.6 18.8 L 20.6 22.4 L 27.4 22.4 L 27.4 18.8 Z"></path><path d="M26.85 1.14L21.13 11a1.28 1.28 0 001.1 2h11.45a1.28 1.28 0 001.1-2l-5.72-9.86a1.28 1.28 0 00-2.21 0z" class="alert"></path></svg>