<svg viewBox="0 0 36 36" xmlns="http://www.w3.org/2000/svg" width="36" height="36"><path d="M 34 29 C 34 30.105 33.105 31 32 31 L 4 31 C 2.896 31 2 30.105 2 29 L 2 7 C 2 5.896 2.896 5 4 5 L 21.958 5 L 17.625 12.395 C 16.795 13.601 17.594 15.245 19.064 15.351 C 19.134 15.357 19.201 15.359 19.27 15.357 L 24.579 15.357 C 23.639 15.863 23 16.857 23 18 C 23 19.657 24.343 21 26 21 C 27.657 21 29 19.657 29 18 C 29 16.857 28.361 15.863 27.421 15.357 L 34 15.357 Z M 11 10 C 8.791 10 7 11.791 7 14 C 7 16.209 8.791 18 11 18 C 13.209 18 15 16.209 15 14 C 15 11.791 13.209 10 11 10 Z M 18 20 C 16.343 20 15 21.343 15 23 C 15 24.657 16.343 26 18 26 C 19.657 26 21 24.657 21 23 C 21 21.343 19.657 20 18 20 Z"></path><path d="M26.85 1.14L21.13 11a1.28 1.28 0 001.1 2h11.45a1.28 1.28 0 001.1-2l-5.72-9.86a1.28 1.28 0 00-2.21 0z" class="alert"></path></svg>