<svg viewBox="0 0 36 36" xmlns="http://www.w3.org/2000/svg" width="36" height="36"><path d="M 34 29 C 34 30.105 33.105 31 32 31 L 4 31 C 2.895 31 2 30.105 2 29 L 2 7 C 2 5.895 2.895 5 4 5 L 21.958 5 L 20.786 7 L 4 7 L 4 29 L 32 29 L 32 15.357 L 34 15.357 Z"></path><path d="M 18.849 21.849 C 15.334 25.364 10.586 26.314 8.243 23.97 C 5.899 21.627 6.849 16.878 10.364 13.364 C 13.049 10.679 16.453 9.492 18.956 10.124 L 18.008 11.741 C 16.18 11.518 13.695 12.578 11.636 14.637 C 8.824 17.449 7.875 21.058 9.515 22.698 C 11.155 24.338 14.764 23.389 17.576 20.577 C 19.228 18.925 20.237 16.998 20.456 15.357 L 22.22 15.357 C 22.006 17.477 20.838 19.861 18.849 21.849 Z"></path><path d="M 28 22 C 28 23.657 26.657 25 25 25 C 23.343 25 22 23.657 22 22 C 22 20.343 23.343 19 25 19 C 26.657 19 28 20.343 28 22 Z M 25 20.6 C 24.226 20.6 23.6 21.226 23.6 22 C 23.6 22.773 24.226 23.4 25 23.4 C 25.773 23.4 26.4 22.773 26.4 22 C 26.4 21.226 25.773 20.6 25 20.6 Z" x="7"></path><path d="M26.85 1.14L21.13 11a1.28 1.28 0 001.1 2h11.45a1.28 1.28 0 001.1-2l-5.72-9.86a1.28 1.28 0 00-2.21 0z" class="alert"></path></svg>