<svg viewBox="0 0 36 36" xmlns="http://www.w3.org/2000/svg" width="36" height="36"><path d="M 34 29 C 34 30.105 33.105 31 32 31 L 4 31 C 2.895 31 2 30.105 2 29 L 2 7 C 2 5.895 2.895 5 4 5 L 21.958 5 L 18.956 10.124 C 16.453 9.492 13.049 10.679 10.364 13.364 C 6.849 16.878 5.899 21.627 8.243 23.97 C 10.586 26.314 15.334 25.364 18.849 21.849 C 20.838 19.861 22.006 17.477 22.22 15.357 L 34 15.357 Z M 25 19 C 23.343 19 22 20.343 22 22 C 22 23.657 23.343 25 25 25 C 26.657 25 28 23.657 28 22 C 28 20.343 26.657 19 25 19 Z"></path><path d="M26.85 1.14L21.13 11a1.28 1.28 0 001.1 2h11.45a1.28 1.28 0 001.1-2l-5.72-9.86a1.28 1.28 0 00-2.21 0z" class="alert"></path></svg>