<svg viewBox="0 0 36 36" xmlns="http://www.w3.org/2000/svg" width="36" height="36"><path d="M 34 29 C 34 30.105 33.105 31 32 31 L 4 31 C 2.896 31 2 30.105 2 29 L 2 7 C 2 5.896 2.896 5 4 5 L 21.958 5 L 17.625 12.395 C 17.476 12.612 17.379 12.843 17.33 13.077 C 17.262 12.948 17.192 12.82 17.118 12.691 C 16.13 10.962 14.795 10 13 10 L 7 10 C 6.448 10 6 10.448 6 11 C 6 11.552 6.448 12 7 12 L 13 12 C 14.817 12 15.674 13.499 17.039 18.275 C 17.813 20.984 18.201 22.118 18.882 23.309 C 19.87 25.038 21.205 26 23 26 L 29 26 C 29.552 26 30 25.552 30 25 C 30 24.448 29.552 24 29 24 L 23 24 C 21.183 24 20.326 22.501 18.962 17.725 C 18.64 16.598 18.385 15.744 18.147 15.044 C 18.407 15.215 18.717 15.326 19.064 15.351 C 19.134 15.357 19.201 15.359 19.27 15.357 L 34 15.357 Z"></path><path d="M26.85 1.14L21.13 11a1.28 1.28 0 001.1 2h11.45a1.28 1.28 0 001.1-2l-5.72-9.86a1.28 1.28 0 00-2.21 0z" class="alert"></path></svg>