<svg viewBox="0 0 36 36" xmlns="http://www.w3.org/2000/svg" width="36" height="36"><path d="M 15 17 L 4 17 C 2.895 17 2 16.105 2 15 L 2 8 C 2 6.895 2.895 6 4 6 L 15 6 C 16.105 6 17 6.895 17 8 L 17 15 C 17 16.105 16.105 17 15 17 Z"></path><path d="M 32 17 L 21 17 C 20.014 17 19.195 16.287 19.03 15.348 C 19.041 15.349 19.053 15.35 19.064 15.351 C 19.134 15.357 19.201 15.359 19.27 15.357 L 33.968 15.357 C 33.8 16.292 32.983 17 32 17 Z M 19 8 C 19 6.895 19.895 6 21 6 L 21.372 6 L 19 10.048 Z"></path><path d="M 15 30 L 4 30 C 2.895 30 2 29.105 2 28 L 2 21 C 2 19.895 2.895 19 4 19 L 15 19 C 16.105 19 17 19.895 17 21 L 17 28 C 17 29.105 16.105 30 15 30 Z"></path><path d="M 32 30 L 21 30 C 19.895 30 19 29.105 19 28 L 19 21 C 19 19.895 19.895 19 21 19 L 32 19 C 33.105 19 34 19.895 34 21 L 34 28 C 34 29.105 33.105 30 32 30 Z"></path><path d="M26.85 1.14L21.13 11a1.28 1.28 0 001.1 2h11.45a1.28 1.28 0 001.1-2l-5.72-9.86a1.28 1.28 0 00-2.21 0z" class="alert"></path></svg>