<svg viewBox="0 0 36 36" xmlns="http://www.w3.org/2000/svg" width="36" height="36"><path d="M 34 29 C 34 30.105 33.105 31 32 31 L 4 31 C 2.895 31 2 30.105 2 29 L 2 7 C 2 5.895 2.895 5 4 5 L 21.958 5 L 20.786 7 L 4 7 L 4 29 L 32 29 L 32 15.357 L 34 15.357 Z"></path><path d="M 8 10 L 19.028 10 L 18.091 11.6 L 15.7 11.6 L 15.7 17.2 L 20.3 17.2 L 20.3 15.357 L 21.9 15.357 L 21.9 17.2 L 26 17.2 L 26 15.357 L 28 15.357 L 28 26 L 8 26 Z M 9.6 24 L 14.1 24 L 14.1 18.8 L 9.6 18.8 Z M 14.1 11.6 L 9.6 11.6 L 9.6 17.2 L 14.1 17.2 Z M 26 24 L 26 18.8 L 21.9 18.8 L 21.9 24 Z M 15.7 24 L 20.3 24 L 20.3 18.8 L 15.7 18.8 Z"></path><path d="M26.85 1.14L21.13 11a1.28 1.28 0 001.1 2h11.45a1.28 1.28 0 001.1-2l-5.72-9.86a1.28 1.28 0 00-2.21 0z" class="alert"></path></svg>