<svg viewBox="0 0 36 36" xmlns="http://www.w3.org/2000/svg" width="36" height="36"><path d="M 34 29 C 34 30.105 33.105 31 32 31 L 4 31 C 2.896 31 2 30.105 2 29 L 2 7 C 2 5.896 2.896 5 4 5 L 21.958 5 L 19.028 10 L 8 10 L 8 26 L 28 26 L 28 15.357 L 34 15.357 Z M 10 19 L 14 19 L 14 24 L 10 24 Z M 22 24 L 22 19 L 26 19 L 26 24 Z M 20 19 L 20 24 L 16 24 L 16 19 Z M 26 17 L 22 17 L 22 15.357 L 26 15.357 Z M 20 17 L 16 17 L 16 12 L 17.856 12 L 17.625 12.395 C 16.795 13.601 17.594 15.245 19.064 15.351 C 19.134 15.357 19.201 15.359 19.27 15.357 L 20 15.357 Z M 14 12 L 14 17 L 10 17 L 10 12 Z"></path><path d="M26.85 1.14L21.13 11a1.28 1.28 0 001.1 2h11.45a1.28 1.28 0 001.1-2l-5.72-9.86a1.28 1.28 0 00-2.21 0z" class="alert"></path></svg>