<svg viewBox="0 0 36 36" xmlns="http://www.w3.org/2000/svg" width="36" height="36"><path d="M 34 29 C 34 30.105 33.105 31 32 31 L 4 31 C 2.895 31 2 30.105 2 29 L 2 7 C 2 5.895 2.895 5 4 5 L 21.958 5 L 20.786 7 L 4 7 L 4 29 L 32 29 L 32 15.357 L 34 15.357 Z"></path><path d="M 17 27 C 12.582 27 9 23.418 9 19 C 9 14.582 12.582 11 17 11 L 17 19 L 25 19 C 25 23.418 21.418 27 17 27 Z M 23.247 20.4 L 15.4 20.4 L 15.4 12.802 C 12.64 13.513 10.601 16.018 10.6 19 C 10.6 22.535 13.465 25.4 17 25.4 C 20.054 25.401 22.608 23.261 23.247 20.4 Z"></path><path d="M 27 17 L 19 17 L 19 15.345 C 19.021 15.348 19.043 15.349 19.064 15.351 C 19.134 15.357 19.201 15.359 19.27 15.357 L 26.831 15.357 C 26.942 15.887 27 16.437 27 17 Z"></path><path d="M26.85 1.14L21.13 11a1.28 1.28 0 001.1 2h11.45a1.28 1.28 0 001.1-2l-5.72-9.86a1.28 1.28 0 00-2.21 0z" class="alert"></path></svg>