<svg viewBox="0 0 36 36" xmlns="http://www.w3.org/2000/svg" width="36" height="36"><path d="M 34 29 C 34 30.105 33.105 31 32 31 L 4 31 C 2.896 31 2 30.105 2 29 L 2 7 C 2 5.896 2.896 5 4 5 L 21.958 5 L 17.625 12.395 C 16.795 13.601 17.594 15.245 19.064 15.351 C 19.134 15.357 19.201 15.359 19.27 15.357 L 34 15.357 Z M 6 26.991 L 27.723 26.99 C 28.483 26.93 28.903 26.06 28.463 25.43 C 28.293 25.18 28.023 25.02 27.723 25 L 25 25 L 25 22 L 23 22 L 23 25 L 20 25 L 20 22 L 18 22 L 18 25 L 15 25 L 15 22 L 13 22 L 13 25 L 10 25 L 10 22 L 8 22 L 8 25 L 6 25 Z"></path><path d="M26.85 1.14L21.13 11a1.28 1.28 0 001.1 2h11.45a1.28 1.28 0 001.1-2l-5.72-9.86a1.28 1.28 0 00-2.21 0z" class="alert"></path></svg>